<svg width="18" height="18" viewBox="0 0 18 18" fill="none" xmlns="http://www.w3.org/2000/svg">
<path d="M9 2.54166C10.184 2.54166 11.1528 3.51041 11.1528 4.69444C11.1528 5.87847 10.184 6.84722 9 6.84722C7.81597 6.84722 6.84722 5.87847 6.84722 4.69444C6.84722 3.51041 7.81597 2.54166 9 2.54166ZM9 12.2292C11.9062 12.2292 15.2431 13.6177 15.4583 14.3819V15.4583H2.54166V14.3927C2.75694 13.6177 6.09375 12.2292 9 12.2292ZM9 0.388885C6.62118 0.388885 4.69444 2.31562 4.69444 4.69444C4.69444 7.07326 6.62118 9 9 9C11.3788 9 13.3056 7.07326 13.3056 4.69444C13.3056 2.31562 11.3788 0.388885 9 0.388885ZM9 10.0764C6.12604 10.0764 0.388885 11.5187 0.388885 14.3819V17.6111H17.6111V14.3819C17.6111 11.5187 11.874 10.0764 9 10.0764Z" fill="black"/>
</svg>
